<?xml version="1.0" standalone="no"?>
<!DOCTYPE svg PUBLIC "-//W3C//DTD SVG 20010904//EN"
 "http://www.w3.org/TR/2001/REC-SVG-20010904/DTD/svg10.dtd">
<svg version="1.0" xmlns="http://www.w3.org/2000/svg"
 width="500.000000pt" height="500.000000pt" viewBox="0 0 500.000000 500.000000"
 preserveAspectRatio="xMidYMid meet">
<metadata>
Created by potrace 1.14, written by Peter Selinger 2001-2017
</metadata>
<g transform="translate(0.000000,500.000000) scale(0.100000,-0.100000)"
fill="#000000" stroke="none">
<path d="M0 2500 l0 -2500 2500 0 2500 0 0 2500 0 2500 -2500 0 -2500 0 0
-2500z m1942 1732 c15 -9 100 -103 188 -209 l161 -192 274 -3 c257 -3 274 -4
295 -23 34 -31 42 -61 26 -99 -8 -19 -20 -37 -27 -42 -8 -5 -103 -11 -212 -14
l-198 -5 310 -369 c274 -326 311 -373 311 -403 0 -51 -38 -85 -92 -81 l-42 3
-361 428 -360 427 -307 0 -306 0 -31 26 c-39 33 -42 80 -7 121 l24 28 236 5
235 5 -104 124 c-145 170 -148 175 -141 215 12 65 74 93 128 58z m852 -2512
l66 -29 70 29 69 30 785 -2 785 -3 -45 -75 c-77 -129 -112 -245 -122 -400 l-7
-105 -847 -3 -848 -2 0 64 c0 45 -8 86 -26 134 -36 99 -51 112 -124 112 -33 0
-60 2 -60 5 0 8 121 249 132 263 19 22 102 14 172 -18z m-261 -399 c17 -35 32
-86 35 -112 l5 -49 -122 0 -121 0 68 135 67 136 19 -23 c10 -13 32 -52 49 -87z
m-1883 -854 c0 -93 -13 -122 -59 -132 -17 -4 -44 0 -66 10 -37 15 -37 16 -20
35 13 14 25 18 42 13 32 -7 43 9 43 65 l0 42 -40 0 c-36 0 -40 3 -40 25 0 24
2 25 70 25 l70 0 0 -83z m230 58 c0 -24 -3 -25 -55 -25 -42 0 -55 -3 -55 -15
0 -11 12 -15 50 -15 47 0 50 -2 50 -25 0 -23 -3 -25 -50 -25 -38 0 -50 -4 -50
-15 0 -12 13 -15 55 -15 52 0 55 -1 55 -25 0 -25 -1 -25 -85 -25 l-85 0 0 105
0 105 85 0 c84 0 85 0 85 -25z m206 17 c7 -4 8 -15 3 -28 -7 -19 -13 -21 -55
-16 -62 7 -56 -16 9 -35 62 -18 80 -51 50 -90 -25 -34 -72 -47 -123 -33 -46
12 -54 21 -37 44 10 13 18 14 45 7 34 -10 62 -6 62 10 0 5 -20 14 -45 20 -52
13 -67 29 -67 66 0 40 34 63 96 63 28 0 56 -4 62 -8z m136 -69 l3 -78 30 0 30
0 3 78 3 78 32 -3 32 -3 -2 -79 c-2 -71 -5 -82 -28 -105 -37 -37 -104 -37
-141 1 -24 23 -28 36 -32 107 l-5 81 36 0 36 0 3 -77z m344 69 c7 -4 8 -15 3
-28 -7 -19 -13 -21 -55 -16 -62 7 -56 -16 9 -35 62 -18 80 -51 50 -90 -25 -34
-72 -47 -123 -33 -46 12 -54 21 -37 44 10 13 18 14 45 7 34 -10 62 -6 62 10 0
5 -20 14 -45 20 -52 13 -67 29 -67 66 0 40 34 63 96 63 28 0 56 -4 62 -8z
m355 -11 c24 -19 24 -20 4 -34 -14 -11 -25 -12 -41 -5 -55 25 -101 -22 -75
-78 11 -26 47 -32 80 -14 14 7 23 5 35 -9 15 -16 15 -19 -1 -33 -44 -38 -125
-29 -163 19 -32 40 -27 107 9 144 25 24 38 29 79 29 34 0 57 -6 73 -19z m129
-21 l0 -40 40 0 40 0 0 40 c0 38 2 40 30 40 l30 0 0 -105 0 -105 -30 0 c-28 0
-30 2 -30 40 l0 40 -40 0 -40 0 0 -40 c0 -38 -2 -40 -30 -40 l-30 0 0 105 0
105 30 0 c28 0 30 -2 30 -40z m381 11 c24 -30 24 -76 0 -100 -20 -20 -20 -20
0 -44 26 -34 24 -37 -14 -37 -26 0 -37 6 -47 25 -7 14 -22 25 -32 25 -13 0
-18 -7 -18 -25 0 -21 -5 -25 -30 -25 l-30 0 0 106 0 106 76 -4 c65 -3 79 -7
95 -27z m139 -76 l0 -105 -35 0 -35 0 0 105 0 105 35 0 35 0 0 -105z m207 97
c7 -4 10 -17 7 -29 -5 -18 -11 -20 -49 -16 -58 7 -68 -13 -13 -27 51 -14 78
-36 78 -62 0 -57 -64 -88 -138 -69 -42 12 -50 23 -33 49 6 11 17 11 45 3 38
-10 66 -6 66 10 0 4 -16 11 -35 15 -75 14 -108 71 -65 114 15 15 33 20 73 20
28 0 57 -4 64 -8z m243 -17 c0 -21 -5 -25 -30 -25 l-30 0 0 -80 0 -80 -35 0
-35 0 0 80 0 80 -30 0 c-25 0 -30 4 -30 25 0 25 0 25 95 25 95 0 95 0 95 -25z
m220 -80 l0 -105 -30 0 -30 0 0 105 0 105 30 0 30 0 0 -105z m215 95 c3 -6 4
-19 0 -29 -5 -16 -13 -18 -52 -13 -35 4 -45 2 -41 -9 2 -7 20 -17 39 -22 46
-12 69 -34 69 -68 0 -49 -68 -78 -139 -59 -37 10 -41 14 -35 33 9 30 8 30 49
18 37 -10 65 -6 65 10 0 5 -20 14 -45 20 -43 11 -75 39 -75 65 0 6 9 23 21 38
18 23 28 26 79 26 32 0 62 -5 65 -10z m245 -70 l0 -80 50 0 c47 0 50 -2 50
-25 0 -25 -1 -25 -80 -25 l-80 0 0 105 0 105 30 0 30 0 0 -80z m329 54 c32
-26 48 -76 37 -112 -18 -57 -96 -93 -152 -72 -92 35 -109 140 -32 194 36 26
111 21 147 -10z m255 5 c30 -24 35 -72 10 -107 -14 -21 -14 -25 0 -47 22 -33
21 -35 -14 -35 -20 0 -35 8 -46 25 -9 14 -25 25 -35 25 -14 0 -19 -7 -19 -25
0 -21 -5 -25 -30 -25 l-30 0 0 105 0 105 69 0 c54 0 74 -4 95 -21z m252 2 c46
-28 61 -80 37 -128 -24 -49 -53 -63 -135 -63 l-68 0 0 105 0 105 68 0 c48 0
76 -5 98 -19z"/>
<path d="M2320 470 c0 -25 4 -30 24 -30 33 0 53 25 36 45 -7 8 -23 15 -36 15
-20 0 -24 -5 -24 -30z"/>
<path d="M3918 489 c-21 -12 -24 -69 -6 -87 7 -7 24 -12 38 -12 34 0 50 17 50
55 0 50 -38 70 -82 44z"/>
<path d="M4182 473 c4 -33 37 -43 57 -19 20 24 6 46 -29 46 -28 0 -31 -3 -28
-27z"/>
<path d="M4430 445 c0 -54 0 -55 29 -55 36 0 61 23 61 55 0 32 -25 55 -61 55
-29 0 -29 -1 -29 -55z"/>
</g>
</svg>
