<?xml version="1.0" standalone="no"?>
<!DOCTYPE svg PUBLIC "-//W3C//DTD SVG 20010904//EN"
 "http://www.w3.org/TR/2001/REC-SVG-20010904/DTD/svg10.dtd">
<svg version="1.0" xmlns="http://www.w3.org/2000/svg"
 width="500.000000pt" height="500.000000pt" viewBox="0 0 500.000000 500.000000"
 preserveAspectRatio="xMidYMid meet">
<metadata>
Created by potrace 1.14, written by Peter Selinger 2001-2017
</metadata>
<g transform="translate(0.000000,500.000000) scale(0.100000,-0.100000)"
fill="#000000" stroke="none">
<path d="M0 2500 l0 -2500 2500 0 2500 0 0 2500 0 2500 -2500 0 -2500 0 0
-2500z m1951 1726 c9 -6 91 -100 183 -208 l167 -198 273 0 c270 0 273 0 293
-22 29 -32 34 -53 22 -88 -18 -50 -37 -55 -248 -60 l-193 -5 311 -369 c274
-326 311 -373 311 -403 0 -60 -64 -100 -124 -77 -9 3 -176 197 -373 430 l-358
424 -308 0 -309 0 -29 29 c-37 38 -39 82 -4 116 l24 25 236 0 c143 0 235 4
233 9 -1 6 -56 73 -120 150 -65 78 -120 151 -123 164 -19 74 71 129 136 83z
m852 -2511 l56 -24 60 24 61 25 790 0 c434 0 790 -1 790 -3 0 -2 -20 -39 -45
-83 -63 -109 -104 -243 -118 -381 l-11 -113 -843 0 -843 0 0 69 c0 53 -7 85
-30 142 -16 41 -37 80 -47 87 -9 6 -43 12 -75 12 -32 0 -58 2 -58 5 0 3 29 64
65 135 l65 130 64 0 c46 0 79 -7 119 -25z m-263 -412 c17 -39 30 -88 30 -107
l0 -36 -115 0 c-69 0 -115 4 -115 10 0 5 28 66 63 135 l62 126 23 -28 c12 -15
36 -60 52 -100z m-1890 -828 c0 -89 -14 -124 -52 -132 -73 -14 -123 13 -84 46
11 9 20 9 34 2 28 -15 42 5 42 61 l0 48 -35 0 c-31 0 -35 3 -35 25 0 24 2 25
65 25 l65 0 0 -75z m230 50 c0 -24 -3 -25 -55 -25 -41 0 -55 -4 -55 -14 0 -11
14 -16 48 -18 39 -3 47 -6 47 -23 0 -17 -8 -20 -47 -23 -34 -2 -48 -7 -48 -18
0 -10 14 -14 55 -14 52 0 55 -1 55 -25 0 -25 -1 -25 -85 -25 l-85 0 0 105 0
105 85 0 c84 0 85 0 85 -25z m199 16 c8 -5 11 -16 7 -29 -6 -17 -12 -19 -40
-12 -37 8 -68 -3 -51 -18 6 -5 29 -14 53 -21 91 -26 68 -122 -30 -123 -64 -1
-90 9 -86 35 2 17 9 21 28 18 50 -8 73 -6 77 6 3 7 -8 15 -24 19 -62 15 -83
32 -83 69 0 24 7 39 22 49 24 17 104 21 127 7z m143 -68 l3 -78 30 0 30 0 3
78 3 77 29 0 30 0 0 -80 c0 -73 -3 -83 -25 -105 -35 -36 -105 -37 -142 -2 -20
18 -23 30 -23 104 l0 83 30 0 29 0 3 -77z m337 68 c8 -5 11 -16 7 -29 -6 -17
-12 -19 -40 -12 -37 8 -68 -3 -51 -18 6 -5 29 -14 53 -21 91 -26 68 -122 -30
-123 -64 -1 -90 9 -86 35 2 17 9 21 28 18 50 -8 73 -6 77 6 3 7 -8 15 -24 19
-62 15 -83 32 -83 69 0 24 7 39 22 49 24 17 104 21 127 7z m359 -7 c22 -15 22
-17 7 -34 -14 -15 -21 -17 -40 -8 -56 25 -102 -22 -76 -78 8 -19 18 -24 45
-24 19 0 38 5 41 11 5 7 14 4 26 -7 24 -21 11 -40 -37 -53 -78 -22 -144 27
-144 106 0 37 5 50 31 74 25 23 40 29 78 29 26 0 56 -7 69 -16z m132 -24 l0
-40 40 0 40 0 0 40 c0 38 2 40 30 40 l30 0 0 -105 0 -105 -30 0 c-28 0 -30 2
-30 40 l0 40 -40 0 -40 0 0 -40 c0 -38 -2 -40 -30 -40 l-30 0 0 105 0 105 30
0 c28 0 30 -2 30 -40z m359 25 c46 -23 56 -78 21 -110 -20 -18 -20 -18 1 -51
l21 -34 -30 0 c-21 0 -37 8 -50 25 -11 14 -27 25 -36 25 -10 0 -16 -9 -16 -25
0 -21 -5 -25 -30 -25 l-30 0 0 105 0 105 60 0 c34 0 74 -7 89 -15z m161 -90
l0 -105 -35 0 -35 0 0 98 c0 54 3 102 7 105 3 4 19 7 35 7 l28 0 0 -105z m207
97 c7 -4 10 -17 6 -30 -4 -18 -10 -21 -32 -16 -28 7 -27 7 -53 5 -33 -2 -18
-18 34 -37 58 -22 74 -40 64 -77 -8 -34 -36 -49 -91 -49 -75 0 -98 15 -77 49
6 10 17 10 42 3 36 -10 70 -5 70 10 0 5 -19 14 -42 21 -77 20 -99 61 -56 106
17 18 32 23 72 23 28 0 56 -4 63 -8z m243 -17 c0 -21 -5 -25 -30 -25 l-30 0 0
-80 0 -80 -35 0 -35 0 0 80 0 80 -30 0 c-25 0 -30 4 -30 25 0 25 0 25 95 25
95 0 95 0 95 -25z m220 -80 l0 -105 -30 0 -30 0 0 105 0 105 30 0 30 0 0 -105z
m204 99 c17 -7 20 -22 8 -41 -6 -9 -17 -10 -39 -4 -32 9 -60 0 -49 -17 3 -5
20 -12 38 -16 68 -14 93 -79 42 -112 -29 -19 -101 -22 -133 -4 -18 9 -19 14
-11 31 9 15 17 18 33 13 34 -12 70 -10 74 3 3 8 -13 17 -42 24 -44 11 -75 39
-75 67 0 7 11 24 25 37 18 19 35 25 69 25 24 0 51 -3 60 -6z m256 -74 l0 -80
50 0 c47 0 50 -2 50 -25 0 -25 -1 -25 -80 -25 l-80 0 0 105 0 105 30 0 30 0 0
-80z m329 54 c78 -65 27 -187 -78 -187 -78 0 -134 69 -111 139 17 49 53 74
111 74 36 0 55 -6 78 -26z m260 2 c27 -24 28 -79 2 -105 -18 -18 -18 -19 0
-42 25 -33 24 -39 -11 -39 -20 0 -35 8 -46 25 -9 14 -25 25 -35 25 -14 0 -19
-7 -19 -25 0 -21 -5 -25 -30 -25 l-30 0 0 106 0 106 74 -4 c55 -2 80 -8 95
-22z m236 10 c40 -17 55 -42 55 -91 0 -75 -42 -105 -145 -105 l-65 0 0 105 0
105 60 0 c33 0 76 -6 95 -14z"/>
<path d="M2320 470 c0 -25 4 -30 24 -30 13 0 29 6 35 14 18 22 2 46 -30 46
-26 0 -29 -4 -29 -30z"/>
<path d="M3912 488 c-7 -7 -12 -26 -12 -43 0 -38 16 -55 51 -55 32 0 52 21 52
55 0 14 -6 32 -13 40 -15 18 -61 20 -78 3z"/>
<path d="M4180 471 c0 -26 4 -31 23 -31 57 1 66 53 9 58 -30 3 -32 1 -32 -27z"/>
<path d="M4430 445 c0 -52 1 -55 26 -55 41 0 64 18 64 50 0 37 -23 60 -61 60
-29 0 -29 -1 -29 -55z"/>
</g>
</svg>
